<svg xmlns="http://www.w3.org/2000/svg" viewBox="0 0 512 512">
  <!-- Rounded square background -->
  <rect width="512" height="512" rx="100" fill="#567D52"/>

  <!-- Circular ring with gap at top-right, transitioning to dots -->
  <path d="M370,130 A160,160 0 1,0 380,160"
        fill="none" stroke="white" stroke-width="5" stroke-linecap="round" opacity="0.9"/>
  <!-- Dots trailing from circle gap -->
  <circle cx="382" cy="148" r="4" fill="white" opacity="0.85"/>
  <circle cx="390" cy="138" r="3.2" fill="white" opacity="0.7"/>
  <circle cx="396" cy="129" r="2.5" fill="white" opacity="0.55"/>
  <circle cx="400" cy="121" r="1.8" fill="white" opacity="0.4"/>

  <!-- ═══ Geometric Hummingbird (origami/low-poly line art) ═══ -->
  <g fill="none" stroke="white" stroke-width="2.8" stroke-linecap="round" stroke-linejoin="round"
     transform="translate(248, 260) scale(1.0)">

    <!-- HEAD -->
    <path d="M50,-60 L62,-72 L70,-58 L55,-50 Z"/>
    <!-- Eye -->
    <circle cx="58" cy="-60" r="3" fill="white" stroke="none"/>
    <!-- Beak - long thin needle -->
    <line x1="70" y1="-65" x2="115" y2="-82"/>
    <line x1="70" y1="-58" x2="115" y2="-82"/>
    <!-- Beak dots -->
    <circle cx="120" cy="-84" r="2.8" fill="white" stroke="none"/>
    <circle cx="126" cy="-87" r="2.2" fill="white" stroke="none"/>
    <circle cx="131" cy="-89" r="1.6" fill="white" stroke="none"/>

    <!-- NECK connection -->
    <line x1="50" y1="-60" x2="30" y2="-40"/>
    <line x1="55" y1="-50" x2="35" y2="-30"/>

    <!-- BODY core - geometric facets -->
    <path d="M30,-40 L35,-30 L20,10 L5,30 L-5,20 L10,-10 Z"/>
    <line x1="10" y1="-10" x2="35" y2="-30"/>
    <line x1="20" y1="10" x2="10" y2="-10"/>
    <line x1="-5" y1="20" x2="10" y2="-10"/>

    <!-- CHEST detail line -->
    <line x1="30" y1="-40" x2="20" y2="10"/>

    <!-- RIGHT WING (upper, geometric triangles) -->
    <path d="M35,-30 L65,-35 L50,-15 Z"/>
    <path d="M50,-15 L65,-35 L80,-20 Z"/>
    <line x1="65" y1="-35" x2="55" y2="-25"/>

    <!-- LEFT WING (back wing, geometric with fragments breaking off) -->
    <path d="M10,-10 L-30,-45 L-10,-20 Z"/>
    <path d="M-30,-45 L-55,-70 L-35,-50 Z"/>
    <path d="M-35,-50 L-55,-70 L-50,-42 L-30,-45 Z"/>
    <line x1="-30" y1="-45" x2="-40" y2="-55"/>

    <!-- Scattered fragment triangles (breaking away from left wing) -->
    <path d="M-62,-78 L-55,-85 L-52,-74 Z"/>
    <path d="M-70,-68 L-64,-75 L-60,-65 Z"/>
    <path d="M-72,-82 L-66,-88 L-65,-79 Z"/>
    <path d="M-58,-92 L-52,-96 L-53,-88 Z"/>
    <path d="M-78,-75 L-74,-82 L-71,-73 Z"/>

    <!-- TAIL FEATHERS (fanned, 4 feathers) -->
    <path d="M5,30 L-25,70 L-15,65 L-5,25"/>
    <path d="M5,30 L-10,80 L0,72 L5,28"/>
    <path d="M5,30 L8,82 L14,72 L10,28"/>
    <path d="M5,30 L25,70 L18,65 L10,28"/>
    <!-- Tail feather center lines -->
    <line x1="-15" y1="40" x2="-22" y2="68"/>
    <line x1="0" y1="42" x2="-5" y2="76"/>
    <line x1="10" y1="42" x2="12" y2="78"/>
    <line x1="16" y1="40" x2="22" y2="66"/>
  </g>
</svg>
